<svg xmlns="http://www.w3.org/2000/svg" viewBox="0 0 32 32" width="32" height="32">
  <defs>
    <linearGradient id="flame-gradient" x1="50%" y1="100%" x2="50%" y2="0%">
      <stop offset="0%" stop-color="#3b82f6"/>
      <stop offset="50%" stop-color="#8b5cf6"/>
      <stop offset="100%" stop-color="#f97316"/>
    </linearGradient>
  </defs>
  <path
    d="M16 2C16 2 12 8 12 14c0 2-1 4-3 5 2 1 3 3 3 5 0 3 2 6 4 6s4-3 4-6c0-2 1-4 3-5-2-1-3-3-3-5 0-6-4-12-4-12z"
    fill="url(#flame-gradient)"
  />
  <path
    d="M16 8c0 0-2 3-2 7 0 1.5 1 3 2 3s2-1.5 2-3c0-4-2-7-2-7z"
    fill="#fbbf24"
    opacity="0.8"
  />
</svg>
